<?xml version="1.0" standalone="no"?>
<!DOCTYPE svg PUBLIC "-//W3C//DTD SVG 20010904//EN"
 "http://www.w3.org/TR/2001/REC-SVG-20010904/DTD/svg10.dtd">
<svg version="1.0" xmlns="http://www.w3.org/2000/svg"
 width="28.000000pt" height="28.000000pt" viewBox="0 0 28.000000 28.000000"
 preserveAspectRatio="xMidYMid meet">

<g transform="translate(0.000000,28.000000) scale(0.100000,-0.100000)"
fill="#000000" stroke="none">
<path d="M21 246 c-28 -45 -27 -57 2 -15 16 23 30 33 43 31 10 -2 34 -6 52 -9
l33 -5 -34 -23 c-41 -29 -62 -59 -77 -113 -6 -25 -17 -42 -25 -42 -8 0 -15 -7
-15 -15 0 -13 4 -14 21 -5 11 7 27 9 35 6 12 -5 11 -9 -6 -26 -23 -23 -36 -25
-43 -7 -3 7 -6 5 -6 -5 -1 -16 12 -18 140 -18 132 0 140 1 128 17 -10 11 -10
14 -1 9 6 -4 12 -2 12 3 0 6 -8 16 -18 22 -12 8 -17 20 -14 35 6 33 -14 84
-48 124 -28 33 -29 36 -13 48 10 7 27 11 38 10 16 -2 20 -11 21 -43 1 -23 9
-54 18 -70 15 -27 16 -27 10 -5 -3 14 -9 46 -11 73 -4 40 -9 48 -30 53 -13 4
-36 1 -49 -5 -31 -14 -91 -14 -99 -1 -13 21 -44 9 -64 -24z m129 -97 c7 -11 9
-32 6 -45 -5 -17 -2 -24 8 -24 11 0 13 8 9 33 -6 41 14 64 40 44 17 -13 29
-68 18 -85 -3 -5 -35 -11 -71 -12 -107 -4 -103 -5 -97 36 11 66 64 98 87 53z
m18 -116 c-2 -14 -15 -19 -53 -21 l-50 -2 24 20 c30 26 84 28 79 3z m66 1 c22
-21 20 -24 -14 -24 -23 0 -30 4 -30 20 0 24 22 26 44 4z"/>
<path d="M96 122 c-3 -5 8 -9 24 -9 16 0 27 4 24 9 -7 10 -41 10 -48 0z"/>
<path d="M190 120 c-12 -8 -10 -10 8 -10 13 0 20 4 17 10 -7 12 -6 12 -25 0z"/>
</g>
</svg>
